<svg width="184" height="36" viewBox="0 0 184 36" fill="none" xmlns="http://www.w3.org/2000/svg">
<g clip-path="url(#clip0_26_220)">
<path d="M51.9964 31.8799C49.3546 31.8799 47.2698 31.0404 45.7456 29.3579C44.2213 27.6754 43.4556 25.2121 43.4556 21.968C43.4556 19.8053 43.767 18.0862 44.3936 16.8142C45.0164 15.5422 45.8885 14.6332 47.006 14.0906C48.1235 13.5481 49.3913 13.2805 50.8093 13.2805C52.0807 13.2805 53.1139 13.4382 53.909 13.7497C54.7005 14.0613 55.327 14.5928 55.7813 15.337C55.6128 14.8311 55.4882 14.3582 55.404 13.9147C55.3197 13.4712 55.2611 12.947 55.2244 12.3458C55.1878 11.7446 55.1695 10.9749 55.1695 10.0401V6.93903C55.1695 5.0659 55.9755 4.1275 57.584 4.1275C59.3391 4.1275 60.2148 5.0659 60.2148 6.93903V22.188C60.2148 25.4321 59.493 27.8624 58.053 29.4716C56.6131 31.0808 54.5942 31.8872 52.0001 31.8872L51.9964 31.8799ZM51.7436 27.5544C52.7512 27.5544 53.539 27.1952 54.1032 26.4731C54.6675 25.751 54.9496 24.4057 54.9496 22.4336C54.9496 21.1103 54.825 20.1096 54.5722 19.4241C54.3194 18.7386 53.953 18.2658 53.473 18.0019C52.993 17.7379 52.4141 17.606 51.7436 17.606C51.0731 17.606 50.4942 17.7379 50.0142 18.0019C49.5342 18.2658 49.1678 18.7423 48.915 19.4241C48.6621 20.1059 48.5376 21.114 48.5376 22.4336C48.5376 24.4057 48.8197 25.751 49.384 26.4731C49.9482 27.1952 50.736 27.5544 51.7436 27.5544Z" fill="white" style="fill:white;fill-opacity:1;"/>
<path d="M64.6481 16.6639C63.9739 16.6639 63.5195 16.5209 63.2777 16.2313C63.0359 15.9417 62.893 15.6558 62.8454 15.3662C62.8197 15.029 62.8563 14.0283 62.9516 12.3568C63.0469 10.6852 63.2154 8.68748 63.4572 6.35248C63.5049 5.68167 63.8236 5.13916 64.4136 4.72861C65.0035 4.32173 65.7399 4.11646 66.6303 4.11646C67.6159 4.11646 68.3231 4.38038 68.7554 4.90823C69.1878 5.43608 69.2611 6.1582 68.9716 7.07094L66.4508 15.4359C66.3298 15.8941 66.1137 16.2093 65.8022 16.3926C65.4908 16.5722 65.1061 16.6639 64.6481 16.6639Z" fill="white" style="fill:white;fill-opacity:1;"/>
<path d="M75.5667 29.4642C75.5667 31.0734 74.724 31.8798 73.0458 31.8798C72.2287 31.8798 71.5802 31.6746 71.1002 31.2677C70.6202 30.8608 70.3784 30.2596 70.3784 29.4642V14.5745C70.3784 11.7373 70.983 9.59289 72.1994 8.13765C73.4122 6.6824 75.2076 5.9566 77.5856 5.9566C79.3406 5.9566 80.7916 6.31583 81.9457 7.03796C83.0999 7.76009 83.8694 8.79379 84.2504 10.1391C84.6351 8.79379 85.4046 7.76009 86.5551 7.03796C87.7093 6.31583 89.1859 5.9566 90.9886 5.9566C93.4398 5.9566 95.2535 6.6604 96.4296 8.06433C97.6058 9.47193 98.1957 11.6383 98.1957 14.5708V29.1013C98.1957 30.0873 98.0015 30.7948 97.6204 31.2274C97.2357 31.6599 96.5872 31.8762 95.6748 31.8762C94.7625 31.8762 94.0883 31.6526 93.656 31.209C93.2236 30.7655 93.0074 30.0617 93.0074 29.1013V14.2849C93.0074 11.9059 91.9852 10.7146 89.9443 10.7146C88.9111 10.7146 88.1416 11.0555 87.6396 11.7409C87.1377 12.4264 86.8812 13.5151 86.8812 15.0033V28.7384C86.8812 29.7245 86.687 30.4319 86.3059 30.8645C85.9212 31.297 85.2727 31.5133 84.3603 31.5133C83.448 31.5133 82.7738 31.2897 82.3415 30.8461C81.9091 30.4026 81.6929 29.6988 81.6929 28.7384V15.0033C81.6929 12.1442 80.6707 10.7146 78.6298 10.7146C76.5889 10.7146 75.5667 11.9059 75.5667 14.2849V29.4642Z" fill="white" style="fill:white;fill-opacity:1;"/>
<path d="M109.115 31.8799C106.711 31.8799 104.839 31.3227 103.494 30.2047C102.149 29.0867 101.475 27.6387 101.475 25.8609C101.475 23.7715 102.358 22.2576 104.124 21.3192C105.89 20.3808 108.477 20.0582 111.888 20.3442C111.72 19.2371 111.372 18.4894 110.844 18.0898C110.316 17.6939 109.679 17.496 108.935 17.496C108.334 17.496 107.836 17.5253 107.44 17.5876C107.044 17.6463 106.678 17.7122 106.341 17.7856C106.004 17.8589 105.597 17.8919 105.117 17.8919C104.469 17.8919 103.952 17.7782 103.567 17.551C103.183 17.3237 102.992 16.8618 102.992 16.1617C102.992 15.1756 103.417 14.4499 104.271 13.9807C105.124 13.5115 106.476 13.2769 108.323 13.2769C111.254 13.2769 113.427 14.1126 114.845 15.7841C116.263 17.4557 116.97 19.6843 116.97 22.4702C116.97 25.6923 116.388 28.0639 115.223 29.5888C114.057 31.1137 112.02 31.8799 109.115 31.8799ZM106.663 25.8609C106.663 27.2319 107.587 27.9173 109.437 27.9173C110.038 27.9173 110.507 27.8074 110.844 27.5911C111.181 27.3748 111.427 26.9423 111.584 26.2935C111.742 25.6446 111.855 24.6696 111.925 23.372C111.804 23.4929 111.65 23.5772 111.456 23.6249C111.262 23.6725 111.071 23.6982 110.881 23.6982C109.294 23.6982 108.195 23.8485 107.583 24.1491C106.971 24.4496 106.663 25.0215 106.663 25.8609Z" fill="white" style="fill:white;fill-opacity:1;"/>
<path d="M123.023 31.8799C121.294 31.8799 120.429 31.0624 120.429 29.4276V15.7621C120.429 14.1053 121.294 13.2732 123.023 13.2732C123.888 13.2732 124.511 13.4601 124.896 13.8304C125.28 14.2043 125.471 14.8091 125.471 15.6522C125.903 14.8604 126.522 14.2629 127.325 13.867C128.131 13.4711 129.073 13.2732 130.154 13.2732C132.22 13.2732 133.253 14.1749 133.253 15.9784C133.253 16.6529 133 17.1551 132.498 17.4923C131.993 17.8296 131.165 17.9982 130.011 17.9982C128.856 17.9982 127.992 18.1008 127.343 18.3061C126.695 18.5114 126.244 18.8816 125.991 19.4241C125.738 19.9666 125.614 20.7401 125.614 21.7481V29.4276C125.614 31.0624 124.749 31.8799 123.02 31.8799H123.023Z" fill="white" style="fill:white;fill-opacity:1;"/>
<path d="M137.152 31.8798C136.214 31.8798 135.547 31.6269 135.151 31.121C134.755 30.6152 134.558 29.9297 134.558 29.0646V6.93165C134.558 6.06656 134.755 5.38109 135.151 4.87524C135.547 4.36938 136.214 4.11646 137.152 4.11646C138.09 4.11646 138.757 4.36938 139.152 4.87524C139.548 5.38109 139.746 6.06656 139.746 6.93165V20.3441C141.017 19.5744 142.149 18.7019 143.135 17.7305C144.121 16.7555 144.791 15.8244 145.154 14.9374C145.491 14.1199 145.971 13.5664 146.594 13.2805C147.217 12.9909 147.902 13.0276 148.649 13.3868C149.683 13.8926 150.163 14.6624 150.089 15.6925C150.064 16.5576 149.675 17.5253 148.917 18.5956C148.158 19.666 147.228 20.5861 146.125 21.3522C147.517 21.8324 148.642 22.7048 149.496 23.9658C150.35 25.2267 150.775 27.0485 150.775 29.4275C150.775 31.0624 149.921 31.8798 148.217 31.8798C146.513 31.8798 145.586 31.0624 145.586 29.4275C145.586 27.6717 145.312 26.3887 144.758 25.5713C144.205 24.7539 143.472 24.347 142.56 24.347C141.717 24.347 141.039 24.6586 140.523 25.2854C140.006 25.9122 139.75 26.9936 139.75 28.5295C139.75 29.9224 139.544 30.8315 139.138 31.253C138.727 31.6745 138.068 31.8835 137.155 31.8835L137.152 31.8798Z" fill="white" style="fill:white;fill-opacity:1;"/>
<path d="M162.664 31.8799C160.261 31.8799 158.381 31.484 157.025 30.6885C155.666 29.8968 154.706 28.8007 154.142 27.4078C153.578 26.0149 153.295 24.4167 153.295 22.6132C153.295 19.2958 154.028 16.9095 155.494 15.4579C156.959 14.0026 158.931 13.2769 161.404 13.2769C162.891 13.2769 164.214 13.5298 165.368 14.0356C166.523 14.5415 167.424 15.2563 168.072 16.18C168.721 17.1038 169.047 18.2291 169.047 19.5524C169.047 23.3976 166.31 25.3221 160.832 25.3221H158.744C158.934 26.0662 159.253 26.649 159.7 27.0706C160.143 27.4921 160.931 27.701 162.06 27.701C162.683 27.701 163.188 27.6644 163.573 27.5947C163.958 27.5214 164.324 27.4518 164.672 27.3785C165.02 27.3052 165.423 27.2722 165.878 27.2722C166.526 27.2722 167.043 27.3858 167.428 27.6131C167.812 27.8403 168.003 28.3059 168.003 29.0023C168.003 29.9884 167.574 30.7142 166.724 31.1834C165.87 31.6526 164.518 31.8872 162.672 31.8872L162.664 31.8799ZM158.484 22.6498C158.674 22.3859 158.89 22.21 159.132 22.1256C159.37 22.0413 159.744 22.001 160.25 22.001C161.668 22.001 162.646 21.8617 163.188 21.5868C163.731 21.3119 163.998 20.8134 163.998 20.0912C163.998 19.1785 163.745 18.4747 163.24 17.9835C162.734 17.4923 162.1 17.2431 161.331 17.2431C160.44 17.2431 159.744 17.6169 159.242 18.3611C158.736 19.1052 158.484 20.5384 158.484 22.6498Z" fill="white" style="fill:white;fill-opacity:1;"/>
<path d="M179.925 31.8798C177.69 31.8798 176.038 31.352 174.972 30.2926C173.902 29.2369 173.367 27.6131 173.367 25.4247V17.9248H172.429C170.795 17.9248 169.978 17.1917 169.978 15.7255C169.978 14.2592 170.795 13.5628 172.429 13.5628H173.367V9.66988C173.367 8.87811 173.612 8.2293 174.107 7.72344C174.598 7.21759 175.243 6.96466 176.034 6.96466C176.826 6.96466 177.416 7.19926 177.874 7.66846C178.332 8.13766 178.559 8.77914 178.559 9.59657V11.3634C178.559 12.2541 178.416 12.9873 178.126 13.5628H181.549C183.183 13.5628 184 14.2849 184 15.7255C184 17.1661 183.183 17.9248 181.549 17.9248H178.559V25.531C178.559 26.2531 178.643 26.7626 178.811 27.0632C178.98 27.3638 179.255 27.5141 179.64 27.5141C180.145 27.5141 180.523 27.4738 180.775 27.3895C181.028 27.3052 181.347 27.2648 181.732 27.2648C182.38 27.2648 182.897 27.3785 183.282 27.6057C183.666 27.833 183.857 28.2985 183.857 28.995C183.857 29.9811 183.545 30.7068 182.919 31.176C182.292 31.6452 181.296 31.8798 179.929 31.8798H179.925Z" fill="white" style="fill:white;fill-opacity:1;"/>
<path d="M0 36V0H16.8142V28.7348H19.0419V0H35.9844V36H28.7223V7.26525H26.304V36H9.55211V7.26525H7.2621V36H0Z" fill="#F48011" style="fill:#F48011;fill:color(display-p3 0.9569 0.5020 0.0667);fill-opacity:1;"/>
</g>
<defs>
<clipPath id="clip0_26_220">
<rect width="184" height="36" fill="white" style="fill:white;fill-opacity:1;"/>
</clipPath>
</defs>
</svg>
