<svg width="399" height="78" viewBox="0 0 399 78" fill="none" xmlns="http://www.w3.org/2000/svg">
<g clip-path="url(#clip0_26_210)">
<path d="M112.753 69.073C107.024 69.073 102.503 67.2542 99.1978 63.6088C95.8925 59.9633 94.2319 54.6262 94.2319 47.5974C94.2319 42.9115 94.9073 39.1866 96.2659 36.4307C97.6167 33.6748 99.5076 31.7051 101.931 30.5297C104.354 29.3542 107.103 28.7745 110.178 28.7745C112.935 28.7745 115.176 29.116 116.9 29.7911C118.616 30.4661 119.975 31.6178 120.96 33.23C120.595 32.134 120.324 31.1095 120.142 30.1485C119.959 29.1874 119.832 28.0517 119.752 26.7492C119.673 25.4467 119.633 23.7788 119.633 21.7536V15.0345C119.633 10.9761 121.381 8.94287 124.869 8.94287C128.675 8.94287 130.574 10.9761 130.574 15.0345V48.0739C130.574 55.1027 129.009 60.3684 125.886 63.855C122.764 67.3416 118.386 69.0889 112.761 69.0889L112.753 69.073ZM112.204 59.7012C114.389 59.7012 116.098 58.9229 117.321 57.3583C118.545 55.7937 119.157 52.8789 119.157 48.606C119.157 45.7389 118.886 43.5707 118.338 42.0855C117.79 40.6003 116.995 39.5758 115.955 39.004C114.914 38.4321 113.658 38.1462 112.204 38.1462C110.75 38.1462 109.495 38.4321 108.454 39.004C107.413 39.5758 106.619 40.6083 106.071 42.0855C105.522 43.5628 105.252 45.7469 105.252 48.606C105.252 52.8789 105.864 55.7937 107.088 57.3583C108.311 58.9229 110.019 59.7012 112.204 59.7012Z" fill="#383333" style="fill:#383333;fill:color(display-p3 0.2196 0.2000 0.2000);fill-opacity:1;"/>
<path d="M140.188 36.1051C138.726 36.1051 137.741 35.7953 137.217 35.1679C136.692 34.5405 136.382 33.921 136.279 33.2935C136.223 32.5629 136.303 30.3946 136.509 26.773C136.716 23.1514 137.081 18.8229 137.606 13.7638C137.709 12.3103 138.4 11.1349 139.68 10.2454C140.959 9.3638 142.556 8.91904 144.487 8.91904C146.624 8.91904 148.157 9.49087 149.095 10.6345C150.032 11.7782 150.191 13.3428 149.564 15.3204L144.097 33.4444C143.835 34.4372 143.366 35.1202 142.691 35.5173C142.016 35.9065 141.181 36.1051 140.188 36.1051Z" fill="#383333" style="fill:#383333;fill:color(display-p3 0.2196 0.2000 0.2000);fill-opacity:1;"/>
<path d="M163.865 63.8391C163.865 67.3257 162.037 69.073 158.398 69.073C156.627 69.073 155.22 68.6282 154.179 67.7467C153.139 66.8651 152.614 65.5626 152.614 63.8391V31.578C152.614 25.4308 153.925 20.7846 156.563 17.6316C159.193 14.4786 163.086 12.906 168.243 12.906C172.049 12.906 175.195 13.6843 177.698 15.2489C180.201 16.8136 181.869 19.0532 182.695 21.968C183.53 19.0532 185.198 16.8136 187.693 15.2489C190.196 13.6843 193.398 12.906 197.307 12.906C202.622 12.906 206.555 14.4309 209.106 17.4728C211.656 20.5225 212.935 25.2164 212.935 31.5701V63.0528C212.935 65.1893 212.514 66.7221 211.688 67.6593C210.854 68.5965 209.447 69.0651 207.469 69.0651C205.491 69.0651 204.029 68.5806 203.091 67.6196C202.154 66.6586 201.685 65.1337 201.685 63.0528V30.9506C201.685 25.7961 199.468 23.2149 195.042 23.2149C192.802 23.2149 191.133 23.9536 190.045 25.4387C188.956 26.9239 188.4 29.2828 188.4 32.5073V62.2666C188.4 64.403 187.979 65.9358 187.153 66.873C186.318 67.8102 184.912 68.2788 182.934 68.2788C180.955 68.2788 179.493 67.7943 178.556 66.8333C177.618 65.8723 177.15 64.3474 177.15 62.2666V32.5073C177.15 26.3124 174.933 23.2149 170.507 23.2149C166.082 23.2149 163.865 25.7961 163.865 30.9506V63.8391Z" fill="#383333" style="fill:#383333;fill:color(display-p3 0.2196 0.2000 0.2000);fill-opacity:1;"/>
<path d="M236.613 69.073C231.401 69.073 227.341 67.8658 224.425 65.4434C221.509 63.0211 220.047 59.8839 220.047 56.032C220.047 51.5049 221.962 48.2248 225.791 46.1916C229.621 44.1584 235.23 43.4595 242.628 44.079C242.262 41.6805 241.507 40.0603 240.363 39.1946C239.219 38.3368 237.837 37.9079 236.224 37.9079C234.921 37.9079 233.84 37.9715 232.982 38.1065C232.124 38.2336 231.329 38.3765 230.598 38.5354C229.867 38.6942 228.985 38.7657 227.945 38.7657C226.538 38.7657 225.418 38.5195 224.584 38.0271C223.749 37.5347 223.336 36.5339 223.336 35.017C223.336 32.8806 224.258 31.308 226.109 30.2914C227.96 29.2748 230.892 28.7665 234.897 28.7665C241.253 28.7665 245.965 30.5773 249.039 34.199C252.114 37.8206 253.648 42.6494 253.648 48.6855C253.648 55.6666 252.384 60.8052 249.858 64.1091C247.331 67.4131 242.914 69.073 236.613 69.073ZM231.297 56.032C231.297 59.0023 233.3 60.4875 237.312 60.4875C238.615 60.4875 239.632 60.2492 240.363 59.7807C241.094 59.3121 241.626 58.3749 241.968 56.9691C242.31 55.5634 242.556 53.4508 242.707 50.6392C242.445 50.9013 242.111 51.084 241.69 51.1872C241.269 51.2905 240.856 51.3461 240.443 51.3461C237.002 51.3461 234.619 51.6717 233.292 52.323C231.965 52.9742 231.297 54.2132 231.297 56.032Z" fill="#383333" style="fill:#383333;fill:color(display-p3 0.2196 0.2000 0.2000);fill-opacity:1;"/>
<path d="M266.773 69.073C263.023 69.073 261.148 67.3019 261.148 63.7597V34.1513C261.148 30.5614 263.023 28.7586 266.773 28.7586C268.648 28.7586 269.999 29.1636 270.833 29.9658C271.668 30.7759 272.081 32.0863 272.081 33.913C273.018 32.1975 274.361 30.903 276.101 30.0452C277.849 29.1875 279.891 28.7586 282.235 28.7586C286.716 28.7586 288.957 30.7123 288.957 34.6199C288.957 36.0813 288.408 37.1693 287.32 37.9C286.224 38.6307 284.428 38.996 281.925 38.996C279.422 38.996 277.547 39.2184 276.141 39.6632C274.735 40.1079 273.757 40.9101 273.209 42.0855C272.661 43.261 272.391 44.9368 272.391 47.1209V63.7597C272.391 67.3019 270.516 69.073 266.765 69.073H266.773Z" fill="#383333" style="fill:#383333;fill:color(display-p3 0.2196 0.2000 0.2000);fill-opacity:1;"/>
<path d="M297.41 69.073C295.376 69.073 293.93 68.525 293.072 67.429C292.214 66.3329 291.785 64.8478 291.785 62.9734V15.0186C291.785 13.1443 292.214 11.6591 293.072 10.5631C293.93 9.46705 295.376 8.91904 297.41 8.91904C299.444 8.91904 300.891 9.46705 301.749 10.5631C302.607 11.6591 303.036 13.1443 303.036 15.0186V44.079C305.793 42.4111 308.248 40.5209 310.385 38.4162C312.523 36.3036 313.977 34.2863 314.763 32.3643C315.494 30.5932 316.535 29.3939 317.886 28.7745C319.236 28.147 320.722 28.2264 322.343 29.0048C324.584 30.1008 325.624 31.7686 325.466 34.0004C325.41 35.8747 324.568 37.9715 322.923 40.2906C321.278 42.6097 319.26 44.6032 316.869 46.2631C319.888 47.3035 322.327 49.1938 324.178 51.9259C326.03 54.658 326.951 58.6052 326.951 63.7597C326.951 67.3019 325.1 69.073 321.405 69.073C317.711 69.073 315.701 67.3019 315.701 63.7597C315.701 59.9554 315.105 57.1756 313.905 55.4045C312.705 53.6334 311.116 52.7518 309.138 52.7518C307.31 52.7518 305.84 53.4269 304.72 54.785C303.6 56.1432 303.044 58.4861 303.044 61.8139C303.044 64.8319 302.599 66.8015 301.717 67.7149C300.827 68.6282 299.397 69.0809 297.418 69.0809L297.41 69.073Z" fill="#383333" style="fill:#383333;fill:color(display-p3 0.2196 0.2000 0.2000);fill-opacity:1;"/>
<path d="M352.734 69.073C347.522 69.073 343.446 68.2152 340.506 66.4918C337.559 64.7763 335.477 62.4016 334.253 59.3836C333.03 56.3655 332.418 52.9027 332.418 48.9952C332.418 41.8075 334.007 36.6372 337.185 33.4921C340.363 30.3391 344.638 28.7665 350.001 28.7665C353.227 28.7665 356.095 29.3145 358.598 30.4105C361.101 31.5066 363.055 33.0553 364.462 35.0567C365.868 37.0581 366.575 39.4964 366.575 42.3635C366.575 50.6948 360.64 54.8645 348.762 54.8645H344.233C344.646 56.4767 345.337 57.7395 346.306 58.6529C347.268 59.5662 348.976 60.0189 351.423 60.0189C352.774 60.0189 353.87 59.9395 354.705 59.7886C355.539 59.6298 356.333 59.4789 357.088 59.32C357.843 59.1612 358.717 59.0897 359.702 59.0897C361.109 59.0897 362.229 59.3359 363.063 59.8283C363.897 60.3207 364.311 61.3294 364.311 62.8384C364.311 64.9748 363.381 66.5474 361.538 67.564C359.686 68.5806 356.755 69.0889 352.75 69.0889L352.734 69.073ZM343.669 49.0746C344.082 48.5028 344.551 48.1216 345.075 47.9389C345.591 47.7562 346.402 47.6689 347.498 47.6689C350.573 47.6689 352.695 47.3671 353.87 46.7714C355.046 46.1757 355.626 45.0956 355.626 43.531C355.626 41.5534 355.078 40.0285 353.982 38.9643C352.885 37.9 351.511 37.3599 349.842 37.3599C347.911 37.3599 346.402 38.17 345.313 39.7823C344.217 41.3946 343.669 44.4999 343.669 49.0746Z" fill="#383333" style="fill:#383333;fill:color(display-p3 0.2196 0.2000 0.2000);fill-opacity:1;"/>
<path d="M390.165 69.073C385.318 69.073 381.735 67.9293 379.423 65.6341C377.103 63.3467 375.943 59.8283 375.943 55.0869V38.8372H373.909C370.365 38.8372 368.593 37.2488 368.593 34.0719C368.593 30.895 370.365 29.386 373.909 29.386H375.943V20.9514C375.943 19.2359 376.475 17.8302 377.548 16.7341C378.612 15.6381 380.011 15.0901 381.727 15.0901C383.443 15.0901 384.722 15.5984 385.715 16.615C386.709 17.6316 387.201 19.0215 387.201 20.7926V24.6207C387.201 26.5507 386.891 28.1391 386.264 29.386H393.685C397.228 29.386 399 30.9506 399 34.0719C399 37.1932 397.228 38.8372 393.685 38.8372H387.201V55.3172C387.201 56.8818 387.384 57.9858 387.75 58.637C388.115 59.2883 388.711 59.6139 389.545 59.6139C390.642 59.6139 391.46 59.5265 392.008 59.3439C392.556 59.1612 393.248 59.0738 394.082 59.0738C395.488 59.0738 396.609 59.32 397.443 59.8124C398.277 60.3049 398.69 61.3135 398.69 62.8225C398.69 64.959 398.015 66.5315 396.656 67.5481C395.298 68.5647 393.136 69.073 390.173 69.073H390.165Z" fill="#383333" style="fill:#383333;fill:color(display-p3 0.2196 0.2000 0.2000);fill-opacity:1;"/>
<path d="M0 78V0H36.4612V62.2586H41.292V0H78.0314V78H62.2837V15.7414H57.0397V78H20.7135V15.7414H15.7477V78H0Z" fill="#F48011" style="fill:#F48011;fill:color(display-p3 0.9569 0.5020 0.0667);fill-opacity:1;"/>
</g>
<defs>
<clipPath id="clip0_26_210">
<rect width="399" height="78" fill="white" style="fill:white;fill-opacity:1;"/>
</clipPath>
</defs>
</svg>
